<?xml version="1.0" encoding="utf-8"?>
<!-- Generator: Adobe Illustrator 19.2.1, SVG Export Plug-In . SVG Version: 6.00 Build 0)  -->
<svg version="1.1" id="Layer_1" xmlns:figma="http://www.figma.com/figma/ns"
	 xmlns="http://www.w3.org/2000/svg" xmlns:xlink="http://www.w3.org/1999/xlink" x="0px" y="0px" viewBox="0 0 32 32"
	 style="enable-background:new 0 0 32 32;" xml:space="preserve">
<style type="text/css">
	.st0{fill:#1369FC;}
	.st1{fill:#FFFFFF;}
</style>
<path id="path0_fill_1_" class="st0" d="M0,16C0,7.2,7.2,0,16,0s16,7.2,16,16s-7.2,16-16,16S0,24.8,0,16z"/>
<rect x="18.9" y="10.5" class="st1" width="4.5" height="1.3"/>
<path class="st1" d="M24.9,15.8c-0.1-0.6-0.3-1.2-0.6-1.6c-0.3-0.6-0.8-1-1.3-1.2s-1.2-0.4-1.8-0.4c-1.1,0-2.1,0.4-2.8,1.1
	c-0.7,0.7-1.1,1.8-1.1,3.2c0,1.5,0.4,2.5,1.2,3.2c0.8,0.7,1.7,1,2.7,1c1.3,0,2.2-0.4,2.9-1.2c0.4-0.5,0.7-1,0.8-1.4h-2.1
	c-0.1,0.2-0.3,0.4-0.4,0.5c-0.3,0.2-0.7,0.4-1.1,0.4s-0.8-0.1-1.1-0.3c-0.5-0.3-0.8-0.9-0.8-1.7H25C25,16.7,25,16.1,24.9,15.8z
	 M19.4,16c0.1-0.5,0.3-0.9,0.5-1.2c0.3-0.3,0.7-0.5,1.2-0.5s0.9,0.1,1.2,0.4c0.3,0.3,0.5,0.7,0.5,1.3H19.4z"/>
<path class="st1" d="M16.2,15.9c-0.3-0.4-0.7-0.7-1.2-0.9c0.4-0.2,0.6-0.4,0.8-0.6c0.3-0.4,0.5-0.9,0.5-1.6c0-0.6-0.2-1.2-0.5-1.6
	c-0.5-0.7-1.4-1.1-2.7-1.1H8v10.7h4.7c0.5,0,1,0,1.5-0.1s0.9-0.3,1.2-0.5s0.5-0.5,0.7-0.8c0.3-0.5,0.5-1.1,0.5-1.7
	C16.6,16.9,16.5,16.4,16.2,15.9z M10.1,11.9h2.3c0.5,0,0.9,0.1,1.2,0.2c0.4,0.2,0.6,0.5,0.6,1c0,0.4-0.1,0.8-0.4,0.9
	c-0.3,0.2-0.7,0.3-1.1,0.3h-2.6V11.9z M13.7,18.7c-0.3,0.1-0.6,0.2-1.1,0.2H10V16h2.6c0.4,0,0.8,0.1,1.1,0.2
	c0.4,0.2,0.7,0.6,0.7,1.2C14.4,18,14.2,18.4,13.7,18.7z"/>
</svg>
