<svg width="4" height="8" viewBox="0 0 4 8" version="1.1" xmlns="http://www.w3.org/2000/svg" xmlns:xlink="http://www.w3.org/1999/xlink" xmlns:figma="http://www.figma.com/figma/ns">
<title>&#226;&#128;&#162; &#208;&#150;&#208;&#181;&#208;&#187;&#209;&#130;&#209;&#139;&#208;&#185;: &#208;&#190;&#208;&#191;&#209;&#130;&#208;&#184;&#208;&#188;&#208;&#184;&#209;&#129;&#209;&#130;&#208;&#184;&#209;&#135;</title>
<desc>Created using Figma</desc>
<g id="Canvas" transform="translate(264 -283)" figma:type="canvas">
<g id="&#226;&#128;&#162; &#208;&#150;&#208;&#181;&#208;&#187;&#209;&#130;&#209;&#139;&#208;&#185;: &#208;&#190;&#208;&#191;&#209;&#130;&#208;&#184;&#208;&#188;&#208;&#184;&#209;&#129;&#209;&#130;&#208;&#184;&#209;&#135;" style="mix-blend-mode:normal;" figma:type="vector">
<use xlink:href="#path0_fill" transform="translate(-263.787 283.466)" fill="#464646" style="mix-blend-mode:normal;"/>
</g>
</g>
<defs>
<path id="path0_fill" d="M 0 1.74902C 0 1.23926 0.161133 0.820312 0.483398 0.492188C 0.811523 0.164063 1.24512 0 1.78418 0C 2.31738 0 2.75098 0.161133 3.08496 0.483398C 3.41895 0.799805 3.58594 1.23047 3.58594 1.77539L 3.58594 2.10059C 3.58594 2.61035 3.4248 3.02637 3.10254 3.34863C 2.78027 3.6709 2.34375 3.83203 1.79297 3.83203C 1.24805 3.83203 0.811523 3.6709 0.483398 3.34863C 0.161133 3.02051 0 2.59863 0 2.08301L 0 1.74902Z"/>
</defs>
</svg>
