<?xml version="1.0" encoding="utf-8"?>
<!-- Generator: Adobe Illustrator 19.2.1, SVG Export Plug-In . SVG Version: 6.00 Build 0)  -->
<svg version="1.1" id="Layer_1" xmlns:figma="http://www.figma.com/figma/ns"
	 xmlns="http://www.w3.org/2000/svg" xmlns:xlink="http://www.w3.org/1999/xlink" x="0px" y="0px" viewBox="0 0 32 32"
	 style="enable-background:new 0 0 32 32;" xml:space="preserve">
<style type="text/css">
	.st0{fill:#EA4C89;}
	.st1{fill:#FFFFFF;}
</style>
<path id="path0_fill_1_" class="st0" d="M0,16C0,7.2,7.2,0,16,0s16,7.2,16,16s-7.2,16-16,16S0,24.8,0,16z"/>
<path id="path1_fill_1_" class="st1" d="M15.9,8c2,0,3.9,0.8,5.3,2c0,0-1.2,1.8-4.2,2.9c-1.3-2.4-2.8-4.4-3-4.6l0,0
	C14.6,8.1,15.3,8,15.9,8z M18.3,15.2c-0.2-0.4-0.3-0.8-0.5-1.2c3.2-1.3,4.4-3.1,4.5-3.2c1.1,1.4,1.8,3.1,1.8,5l0,0
	c-0.2,0-2.9-0.6-5.6-0.3C18.3,15.5,18.3,15.4,18.3,15.2z M23.8,17.3c-0.4,2.2-1.6,4.2-3.4,5.4c-0.1-0.5-0.5-2.8-1.6-5.7
	C21.4,16.5,23.6,17.2,23.8,17.3z M17.3,17.3L17.3,17.3L17.3,17.3c-4.8,1.7-6.3,5-6.3,5c1.4,1.1,3.1,1.7,4.9,1.7
	c1.1,0,2.2-0.2,3.1-0.6C18.9,22.7,18.4,20.2,17.3,17.3z M16.1,14.6C12,15.8,8,15.7,7.9,15.7v0.1c0,0.1,0,0.1,0,0.2
	c0,2.1,0.8,3.9,2.1,5.3c0,0,2.2-3.9,6.5-5.3c0.1,0,0.2-0.1,0.3-0.1C16.6,15.5,16.4,15.1,16.1,14.6z M8.1,14.4
	c0.5-2.5,2.2-4.5,4.4-5.6c0.1,0.1,1.6,2.1,3,4.6C11.8,14.4,8.4,14.4,8.1,14.4L8.1,14.4z"/>
</svg>
